<svg width="26" height="26" viewBox="0 0 26 26" fill="none" xmlns="http://www.w3.org/2000/svg">
<rect width="26" height="26" rx="13" fill="#101017"/>
<path fill-rule="evenodd" clip-rule="evenodd" d="M20.2008 9.51042C20.2008 9.14907 20.0066 8.81573 19.6926 8.63802L13.4926 5.12953C13.1874 4.95682 12.8142 4.95682 12.509 5.12953L6.309 8.63802C5.99498 8.81573 5.80078 9.14907 5.80078 9.51042V16.4896C5.80078 16.8509 5.99498 17.1843 6.309 17.362L12.509 20.8705C12.8142 21.0432 13.1874 21.0432 13.4926 20.8705L19.6926 17.362C20.0066 17.1843 20.2008 16.8509 20.2008 16.4896V9.51042ZM16.1966 16.1237C16.9643 16.1237 17.4457 15.2928 17.065 14.6249L13.9103 9.09082C13.5265 8.41747 12.5574 8.41747 12.1736 9.09082L9.01891 14.6249C8.63816 15.2928 9.11954 16.1237 9.88727 16.1237H16.1966Z" fill="white"/>
</svg>
