<svg width="83" height="16" viewBox="0 0 83 16" fill="none" xmlns="http://www.w3.org/2000/svg">
<g clip-path="url(#clip0_501_32069)">
<path fill-rule="evenodd" clip-rule="evenodd" d="M14.9472 4.58792C14.9472 4.23461 14.7573 3.90867 14.4503 3.73491L8.38804 0.304387C8.08962 0.135517 7.72475 0.135517 7.42633 0.304387L1.36411 3.73491C1.05707 3.90867 0.867188 4.23461 0.867188 4.58792V11.412C0.867188 11.7653 1.05707 12.0912 1.36411 12.265L7.42633 15.6955C7.72475 15.8644 8.08962 15.8644 8.38804 15.6955L14.4503 12.265C14.7573 12.0912 14.9472 11.7653 14.9472 11.412V4.58792ZM11.032 11.0543C11.7827 11.0543 12.2534 10.2418 11.8811 9.58876L8.79648 4.17765C8.42118 3.51926 7.47369 3.51926 7.09839 4.17765L4.0138 9.58876C3.64152 10.2418 4.1122 11.0543 4.86287 11.0543H11.032Z" fill="black"/>
<path d="M23.9376 7.88878C24.3986 7.98243 24.7696 8.20215 25.0507 8.54795C25.3389 8.89374 25.4829 9.29717 25.4829 9.75824C25.4829 10.3922 25.2704 10.8965 24.8454 11.2711C24.4203 11.6385 23.8043 11.8222 22.9976 11.8222H19.9609V4.19308H22.9435C23.7071 4.19308 24.2907 4.36597 24.6941 4.71177C25.1048 5.05036 25.3101 5.51863 25.3101 6.11657C25.3101 6.59925 25.1839 6.99187 24.9318 7.29443C24.6797 7.58981 24.3483 7.78791 23.9376 7.88878ZM21.1929 7.47815H22.7165C23.1488 7.47815 23.4767 7.37728 23.7 7.17557C23.9304 6.97385 24.0457 6.69291 24.0457 6.33269C24.0457 5.9797 23.9304 5.70233 23.7 5.50062C23.4767 5.29891 23.1344 5.19804 22.6733 5.19804H21.1929V7.47815ZM22.749 10.8064C23.2173 10.8064 23.5775 10.702 23.8296 10.493C24.0889 10.2769 24.2185 9.97795 24.2185 9.59614C24.2185 9.21433 24.0889 8.91536 23.8296 8.69923C23.5702 8.48311 23.2064 8.37506 22.7382 8.37506H21.1929V10.8064H22.749ZM26.4681 4.13906C26.4681 3.93013 26.5401 3.75723 26.6841 3.62035C26.8283 3.48348 27.0192 3.41504 27.2569 3.41504C27.4946 3.41504 27.6856 3.48348 27.8296 3.62035C27.9809 3.75723 28.0566 3.93013 28.0566 4.13906C28.0566 4.34796 27.9809 4.51726 27.8296 4.64693C27.6856 4.7766 27.4946 4.84146 27.2569 4.84146C27.0192 4.84146 26.8283 4.7766 26.6841 4.64693C26.5401 4.51726 26.4681 4.34796 26.4681 4.13906ZM27.8729 5.86803V11.8222H26.6409V5.86803H27.8729ZM32.3568 10.7524V11.8222H31.6004C30.9665 11.8222 30.4838 11.6709 30.1524 11.3684C29.8283 11.0586 29.6662 10.5471 29.6662 9.83388V6.91623H28.8125V5.86803H29.6662V4.38759H30.9089V5.86803H32.346V6.91623H30.9089V9.85548C30.9089 10.1941 30.9702 10.4282 31.0925 10.5579C31.2223 10.6876 31.4456 10.7524 31.7625 10.7524H32.3568ZM36.288 4.63612C35.8054 4.61452 35.4667 4.69376 35.2722 4.87387C35.0777 5.04677 34.9805 5.34574 34.9805 5.77077V5.86803H36.288V6.92704H34.9805V11.8222H33.7378V6.92704H32.9273V5.86803H33.7378V5.67353C33.7378 4.9459 33.9503 4.40201 34.3753 4.04179C34.8004 3.67438 35.4379 3.5123 36.288 3.55552V4.63612ZM37.1053 4.13906C37.1053 3.93013 37.1773 3.75723 37.3215 3.62035C37.4655 3.48348 37.6564 3.41504 37.8941 3.41504C38.132 3.41504 38.3229 3.48348 38.4669 3.62035C38.6182 3.75723 38.6939 3.93013 38.6939 4.13906C38.6939 4.34796 38.6182 4.51726 38.4669 4.64693C38.3229 4.7766 38.132 4.84146 37.8941 4.84146C37.6564 4.84146 37.4655 4.7766 37.3215 4.64693C37.1773 4.51726 37.1053 4.34796 37.1053 4.13906ZM38.5101 5.86803V11.8222H37.2783V5.86803H38.5101ZM43.3291 5.77077C44.0207 5.77077 44.5755 5.9941 44.9933 6.44075C45.4111 6.88741 45.6201 7.52498 45.6201 8.35344V11.8222H44.3881V8.48311C44.3881 7.95001 44.2512 7.53938 43.9775 7.25122C43.7037 6.95584 43.3291 6.80816 42.8537 6.80816C42.3638 6.80816 41.9713 6.96665 41.6758 7.28363C41.3805 7.5934 41.2328 8.05086 41.2328 8.65602V11.8222H40.0009V5.86803H41.2328V7.17557C41.3913 6.72892 41.6578 6.38313 42.0324 6.13819C42.407 5.89324 42.8393 5.77077 43.3291 5.77077ZM46.8879 4.13906C46.8879 3.93013 46.9599 3.75723 47.1039 3.62035C47.248 3.48348 47.439 3.41504 47.6767 3.41504C47.9144 3.41504 48.1053 3.48348 48.2495 3.62035C48.4008 3.75723 48.4763 3.93013 48.4763 4.13906C48.4763 4.34796 48.4008 4.51726 48.2495 4.64693C48.1053 4.7766 47.9144 4.84146 47.6767 4.84146C47.439 4.84146 47.248 4.7766 47.1039 4.64693C46.9599 4.51726 46.8879 4.34796 46.8879 4.13906ZM48.2927 5.86803V11.8222H47.0607V5.86803H48.2927ZM52.7766 10.7524V11.8222H52.0203C51.3862 11.8222 50.9035 11.6709 50.5721 11.3684C50.248 11.0586 50.0859 10.5471 50.0859 9.83388V6.91623H49.2322V5.86803H50.0859V4.38759H51.3286V5.86803H52.7659V6.91623H51.3286V9.85548C51.3286 10.1941 51.3899 10.4282 51.5124 10.5579C51.642 10.6876 51.8653 10.7524 52.1823 10.7524H52.7766ZM54.6331 5.86803L56.416 10.2445L58.0694 5.86803H59.4418L55.8432 14.6534H54.471L55.7568 11.6817L53.2498 5.86803H54.6331Z" fill="black"/>
<path fill-rule="evenodd" clip-rule="evenodd" d="M62.7637 3.4668C62.2211 3.4668 61.7812 3.90662 61.7812 4.44918V11.5511C61.7812 12.0936 62.2211 12.5335 62.7637 12.5335H81.5988C82.1414 12.5335 82.5812 12.0936 82.5812 11.5511V4.44918C82.5812 3.90662 82.1414 3.4668 81.5988 3.4668H62.7637ZM64.9013 6.17954V7.56198H66.7875V8.37784H64.9013V9.81316H67.0138V10.6668H63.8376V5.33346H67.0138V6.17954H64.9013ZM69.3027 5.33346L70.7284 9.55631L72.162 5.33346H73.3013L71.415 10.6668H70.0495L68.1635 5.33346H69.3027ZM80.3709 10.6668V5.39389H79.0883L77.519 9.3599L75.9197 5.39389H74.6296V10.6668H75.6934V7.00296L77.0438 10.6668H77.9642L79.3146 6.98786V10.6668H80.3709Z" fill="black"/>
</g>
<defs>
<clipPath id="clip0_501_32069">
<rect width="82.1333" height="16" fill="white" transform="translate(0.867188)"/>
</clipPath>
</defs>
</svg>
