<svg width="40" height="40" viewBox="0 0 40 40" fill="none" xmlns="http://www.w3.org/2000/svg">
<rect width="40" height="40" rx="12" fill="#D0D0D0"/>
<g filter="url(#filter0_d_183_1816)">
<path d="M33.7233 15.8862L33.4754 14.744C33.4248 14.5106 33.247 14.3475 33.0435 14.3475H30.2331L29.064 11.7481C28.5855 10.6842 27.5275 10 26.3612 10H13.6421C12.4756 10 11.4178 10.6842 10.9393 11.7481L9.7702 14.3475H6.95981C6.75628 14.3475 6.57846 14.5106 6.52788 14.744L6.27981 15.8862C6.21393 16.1897 6.38452 16.4937 6.64636 16.5396L8.30114 16.9319L7.69543 17.5937C7.33997 17.889 7.13426 18.3273 7.13426 18.7893V29.2814C7.13426 29.6782 7.45594 30 7.85291 30H10.3171C10.7139 30 11.0357 29.6783 11.0357 29.2814V26.7424H28.9674V29.2814C28.9674 29.6782 29.289 30 29.686 30H32.1504C32.5472 30 32.869 29.6783 32.869 29.2814V18.7893C32.869 18.3273 32.6633 17.889 32.3078 17.5937L31.7021 16.9319L33.3569 16.5396C33.6187 16.4937 33.7893 16.1897 33.7234 15.8862H33.7233ZM12.9482 22.2377C12.8914 22.2688 12.8272 22.2841 12.7624 22.2817L8.66651 22.1374C8.35257 22.1263 8.1008 21.8737 8.09089 21.5597L8.05492 20.4302C8.04433 20.1006 8.30299 19.8248 8.63257 19.8144L9.71945 19.7796C9.80331 19.7769 9.8865 19.7919 9.96432 19.8236L13.3364 20.9223C13.493 20.9861 12.9487 22.2377 12.9487 22.2377H12.9482ZM9.82802 16.7482L11.7287 12.0991C12.0677 11.3487 12.8184 10.864 13.6421 10.864H26.3612C27.1848 10.864 27.9353 11.3484 28.2741 12.0983L30.1751 16.7482C26.9677 16.5285 23.3704 16.5021 20.0015 16.5021C16.6327 16.5021 13.0352 16.5285 9.82802 16.7482ZM31.9485 20.4303L31.9124 21.5599C31.9023 21.874 31.6507 22.1265 31.3367 22.1375L27.2408 22.2819C27.1761 22.2841 27.1119 22.269 27.0551 22.2379C27.0551 22.2379 26.5107 20.9863 26.6674 20.9224L30.0393 19.8238C30.1169 19.792 30.2003 19.7771 30.2841 19.7798L31.371 19.8145C31.7006 19.8251 31.9591 20.1008 31.9487 20.4303H31.9485Z" fill="#0038FF"/>
</g>
<defs>
<filter id="filter0_d_183_1816" x="2.26562" y="8" width="35.4727" height="28" filterUnits="userSpaceOnUse" color-interpolation-filters="sRGB">
<feFlood flood-opacity="0" result="BackgroundImageFix"/>
<feColorMatrix in="SourceAlpha" type="matrix" values="0 0 0 0 0 0 0 0 0 0 0 0 0 0 0 0 0 0 127 0" result="hardAlpha"/>
<feOffset dy="2"/>
<feGaussianBlur stdDeviation="2"/>
<feComposite in2="hardAlpha" operator="out"/>
<feColorMatrix type="matrix" values="0 0 0 0 0 0 0 0 0 0 0 0 0 0 0 0 0 0 0.25 0"/>
<feBlend mode="normal" in2="BackgroundImageFix" result="effect1_dropShadow_183_1816"/>
<feBlend mode="normal" in="SourceGraphic" in2="effect1_dropShadow_183_1816" result="shape"/>
</filter>
</defs>
</svg>
