<svg width="341" height="335" viewBox="0 0 341 335" fill="none" xmlns="http://www.w3.org/2000/svg">
<path d="M13.2717 102.421C22.9158 79.8972 37.4851 59.7195 55.9527 43.31C74.4204 26.9005 96.337 14.6585 120.158 7.44671C143.979 0.234954 169.125 -1.77104 193.823 1.5701C218.521 4.91124 242.171 13.5182 263.105 26.7844L233.472 71.6628C219.236 62.6417 203.154 56.789 186.36 54.517C169.565 52.2451 152.466 53.6091 136.267 58.5131C120.069 63.4171 105.166 71.7417 92.6079 82.9002C80.0498 94.0586 70.1427 107.779 63.5847 123.096L13.2717 102.421Z" fill="#F0290E"/>
<path d="M260.174 24.9677C287.91 41.77 310.145 66.012 324.243 94.8191C338.342 123.626 343.711 155.79 339.715 187.496C335.719 219.202 322.526 249.12 301.699 273.703C280.872 298.286 253.285 316.502 222.211 326.191C191.136 335.88 157.877 336.636 126.377 328.369C94.8773 320.101 66.4585 303.158 44.4906 279.547C22.5227 255.937 7.92737 226.65 2.43532 195.159C-3.05672 163.669 0.784947 131.296 13.5048 101.879L63.7432 122.727C55.0938 142.73 52.4814 164.744 56.216 186.158C59.9506 207.571 69.8755 227.486 84.8136 243.541C99.7518 259.597 119.077 271.118 140.496 276.74C161.916 282.362 184.533 281.848 205.663 275.259C226.794 268.671 245.553 256.284 259.715 239.568C273.877 222.851 282.849 202.507 285.566 180.947C288.284 159.386 284.632 137.515 275.045 117.926C265.459 98.3375 250.338 81.853 231.478 70.4274L260.174 24.9677Z" fill="#26E075"/>
</svg>
