<svg width="32" height="32" viewBox="0 0 32 32" fill="none" xmlns="http://www.w3.org/2000/svg">
<path d="M23.8656 6.665C24.1402 7.32904 24.6672 7.85686 25.3308 8.13242L27.6577 9.0963C28.3218 9.37137 28.8494 9.89898 29.1244 10.5631C29.3995 11.2272 29.3995 11.9733 29.1244 12.6374L28.1613 14.9627C27.8861 15.6271 27.8857 16.374 28.1622 17.0381L29.1236 19.3627C29.26 19.6916 29.3302 20.0442 29.3303 20.4003C29.3303 20.7563 29.2602 21.1089 29.124 21.4379C28.9877 21.7668 28.788 22.0657 28.5362 22.3174C28.2844 22.5692 27.9854 22.7688 27.6564 22.905L25.3312 23.8681C24.6672 24.1427 24.1394 24.6697 23.8638 25.3334L22.9 27.6604C22.6249 28.3244 22.0973 28.8521 21.4333 29.1271C20.7692 29.4022 20.0231 29.4022 19.359 29.1271L17.0338 28.164C16.3697 27.8896 15.6238 27.8901 14.9602 28.1655L12.6333 29.128C11.9696 29.4024 11.2241 29.4022 10.5606 29.1274C9.89703 28.8525 9.36973 28.3255 9.09448 27.6621L8.13035 25.3344C7.8558 24.6704 7.32879 24.1426 6.66519 23.867L4.33828 22.9032C3.67451 22.6282 3.14707 22.1009 2.87191 21.4372C2.59674 20.7735 2.59637 20.0277 2.87087 19.3637L3.83401 17.0384C4.1084 16.3743 4.10784 15.6284 3.83246 14.9647L2.87069 12.636C2.73433 12.3071 2.66412 11.9546 2.66406 11.5985C2.66401 11.2424 2.73411 10.8899 2.87036 10.5609C3.00661 10.2319 3.20635 9.93306 3.45815 9.68133C3.70996 9.4296 4.00889 9.22995 4.33788 9.0938L6.66313 8.13061C7.32656 7.85629 7.85404 7.32993 8.1298 6.66707L9.09364 4.34007C9.3687 3.67599 9.8963 3.14837 10.5604 2.8733C11.2244 2.59822 11.9706 2.59822 12.6346 2.8733L14.9599 3.83648C15.6239 4.11088 16.3698 4.11032 17.0335 3.83492L19.3614 2.87479C20.0253 2.59987 20.7713 2.59993 21.4352 2.87495C22.0992 3.14997 22.6267 3.67743 22.9018 4.34134L23.8659 6.66903L23.8656 6.665Z" fill="#26E075"/>
<path d="M11.9974 16.0003L14.6641 18.667L20.6641 12.667M23.8656 6.665C24.1402 7.32904 24.6672 7.85686 25.3308 8.13242L27.6577 9.0963C28.3218 9.37137 28.8494 9.89898 29.1244 10.5631C29.3995 11.2272 29.3995 11.9733 29.1244 12.6374L28.1613 14.9627C27.8861 15.6271 27.8857 16.374 28.1622 17.0381L29.1236 19.3627C29.26 19.6916 29.3302 20.0442 29.3303 20.4003C29.3303 20.7563 29.2602 21.1089 29.124 21.4379C28.9877 21.7668 28.788 22.0657 28.5362 22.3174C28.2844 22.5692 27.9854 22.7688 27.6564 22.905L25.3312 23.8681C24.6672 24.1427 24.1394 24.6697 23.8638 25.3334L22.9 27.6604C22.6249 28.3244 22.0973 28.8521 21.4333 29.1271C20.7692 29.4022 20.0231 29.4022 19.359 29.1271L17.0338 28.164C16.3697 27.8896 15.6238 27.8901 14.9602 28.1655L12.6333 29.128C11.9696 29.4024 11.2241 29.4022 10.5606 29.1274C9.89703 28.8525 9.36973 28.3255 9.09448 27.6621L8.13035 25.3344C7.8558 24.6704 7.32879 24.1426 6.66519 23.867L4.33828 22.9032C3.67451 22.6282 3.14707 22.1009 2.87191 21.4372C2.59674 20.7735 2.59637 20.0277 2.87087 19.3637L3.83401 17.0384C4.1084 16.3743 4.10784 15.6284 3.83246 14.9647L2.87069 12.636C2.73433 12.3071 2.66412 11.9546 2.66406 11.5985C2.66401 11.2424 2.73411 10.8899 2.87036 10.5609C3.00661 10.2319 3.20635 9.93306 3.45815 9.68133C3.70996 9.4296 4.00889 9.22995 4.33788 9.0938L6.66313 8.13061C7.32656 7.85629 7.85404 7.32993 8.1298 6.66707L9.09364 4.34007C9.3687 3.67599 9.8963 3.14837 10.5604 2.8733C11.2244 2.59822 11.9706 2.59822 12.6346 2.8733L14.9599 3.83648C15.6239 4.11088 16.3698 4.11032 17.0335 3.83492L19.3614 2.87479C20.0253 2.59987 20.7713 2.59993 21.4352 2.87495C22.0992 3.14997 22.6267 3.67743 22.9018 4.34134L23.8659 6.66903L23.8656 6.665Z" stroke="#0E0E0E" stroke-width="1.5" stroke-linecap="round" stroke-linejoin="round"/>
</svg>
