<svg width="32" height="32" viewBox="0 0 32 32" fill="none" xmlns="http://www.w3.org/2000/svg">
<rect width="32" height="32" rx="16" fill="#0E0E0E"/>
<g clip-path="url(#clip0_453_21675)">
<path d="M23.6429 14.7561V17.2447H19.0025L19.6097 17.8518L22.2836 20.5257L20.5237 22.2855L17.8498 19.6116L17.2427 19.0045V23.6449H14.7541V14.7561H23.6429ZM23.9986 14.4004H14.3984V24.0005H17.5984V19.8631L20.5237 22.7884L22.7865 20.5257L19.8611 17.6003H23.9986V14.4004Z" fill="#EFEFEF"/>
<path d="M14.3994 19.8629L11.4737 22.7883L9.21094 20.5255L14.3994 15.3374V19.8629Z" fill="#EFEFEF"/>
<path d="M22.7868 11.4747L19.8614 14.4004H15.3359L20.524 9.21191L22.7868 11.4747Z" fill="#EFEFEF"/>
<path d="M17.5984 14.4002H14.3984V8.54915V8H17.5984V8.54915V14.4002Z" fill="#EFEFEF"/>
<path d="M14.3994 16.6628L9.21094 11.4747L11.4737 9.21191L16.6618 14.4004H14.3994V16.6628Z" fill="#EFEFEF"/>
<path d="M14.4002 17.6003H8.54915H8V14.4004H8.54915H14.4002V17.6003Z" fill="#EFEFEF"/>
</g>
<defs>
<clipPath id="clip0_453_21675">
<rect width="16" height="16" fill="white" transform="translate(8 8)"/>
</clipPath>
</defs>
</svg>
