<svg width="32" height="32" viewBox="0 0 32 32" fill="none" xmlns="http://www.w3.org/2000/svg">
<path d="M31.9132 16.0001C31.9132 24.7901 24.7877 31.9159 15.9977 31.9159C7.20769 31.9159 0.0820312 24.7901 0.0820312 16.0001C0.0820312 7.21013 7.20769 0.0844727 15.9977 0.0844727C24.7876 0.0844727 31.9132 7.21013 31.9132 16.0001" fill="#0E0E0E"/>
<g opacity="0.8">
<path d="M15.946 8.61523L15.8477 8.94937V18.6451L15.946 18.7433L20.4466 16.0829L15.946 8.61523Z" fill="#EFEFEF"/>
<path d="M15.946 8.61523L11.4453 16.0829L15.946 18.7433V14.0373V8.61523Z" fill="#EFEFEF"/>
<path d="M15.946 20.2073L15.8906 20.2749V23.7287L15.946 23.8905L20.4494 17.5483L15.946 20.2073Z" fill="#EFEFEF"/>
<path d="M15.946 23.8905V20.2073L11.4453 17.5483L15.946 23.8905Z" fill="#EFEFEF"/>
<path d="M15.9453 18.7431L20.4459 16.0828L15.9453 14.0371V18.7431Z" fill="#EFEFEF"/>
<path d="M11.4453 16.0828L15.9459 18.7431V14.0371L11.4453 16.0828Z" fill="#EFEFEF"/>
</g>
</svg>
