<svg width="191" height="24" viewBox="0 0 191 24" fill="none" xmlns="http://www.w3.org/2000/svg">
<path d="M2.22063 4.43243C1.89012 4.4395 1.56198 4.3751 1.25866 4.24363C0.993338 4.125 0.755555 3.95256 0.5604 3.73719C0.377719 3.53301 0.235361 3.29606 0.14085 3.03891C0.0493328 2.79549 0.00164626 2.5378 0 2.27775V2.15187C0.000111157 1.8875 0.0488753 1.62543 0.14385 1.37871C0.241811 1.12391 0.387228 0.890007 0.57239 0.689429C0.767353 0.476105 1.00534 0.306542 1.27064 0.19195C1.57117 0.065691 1.89471 0.00343747 2.22063 0.00914939C2.5465 0.00404673 2.86992 0.0662764 3.17062 0.19195C3.43503 0.306589 3.67202 0.476175 3.86587 0.689429C4.05223 0.889096 4.19781 1.12325 4.29442 1.37871C4.3894 1.62543 4.43815 1.8875 4.43826 2.15187V2.27775C4.43805 2.53794 4.39032 2.79587 4.29741 3.03891C4.20404 3.29661 4.06156 3.53377 3.87786 3.73719C3.68358 3.95222 3.44685 4.12465 3.1826 4.24363C2.87908 4.37447 2.55109 4.43885 2.22063 4.43243ZM2.22063 4.02787C2.55018 4.03577 2.87529 3.95062 3.15863 3.78215C3.42097 3.62389 3.63619 3.39831 3.78196 3.12883C3.92949 2.85225 4.00571 2.54325 4.00373 2.22979C4.00832 1.9084 3.93206 1.59102 3.78196 1.30679C3.63585 1.03991 3.42053 0.817334 3.15863 0.662468C2.87346 0.499344 2.54905 0.417452 2.22063 0.425709C1.89221 0.417452 1.5678 0.499344 1.28263 0.662468C1.01941 0.815647 0.803686 1.03864 0.6593 1.30679C0.507849 1.5905 0.431501 1.90824 0.43753 2.22979C0.434132 2.54341 0.510445 2.85276 0.6593 3.12883C0.803365 3.39955 1.01897 3.62554 1.28263 3.78215C1.56578 3.95108 1.89102 4.03627 2.22063 4.02787ZM1.32159 3.38955V0.959149H1.89698V3.38955H1.32159ZM1.5943 2.65835V2.16687H2.26259C2.37559 2.17821 2.48853 2.14485 2.57725 2.07395C2.61138 2.03944 2.63783 1.99809 2.65487 1.95264C2.67191 1.9072 2.67916 1.85867 2.67614 1.81023C2.67983 1.76082 2.67291 1.71122 2.65586 1.66471C2.6388 1.61819 2.612 1.57582 2.57725 1.54051C2.48738 1.47207 2.37505 1.44 2.26259 1.45063H1.5943V0.959149H2.22363C2.49583 0.943034 2.76538 1.0202 2.98781 1.17791C3.07921 1.25492 3.15144 1.35215 3.19877 1.4619C3.2461 1.57164 3.26725 1.6909 3.26052 1.81023C3.26654 1.9286 3.24504 2.04675 3.19773 2.15542C3.15041 2.26409 3.07856 2.36035 2.98781 2.43659C2.76576 2.59536 2.49618 2.67359 2.22363 2.65835H1.5943ZM2.75406 3.38955L2.12174 2.45455H2.7211L3.39238 3.38955H2.75406Z" fill="#111111"/>
<path d="M18.1052 23.9959C16.2797 24.0438 14.4677 23.6705 12.8098 22.905C11.4153 22.239 10.1868 21.2705 9.21365 20.0701C8.30754 18.9383 7.6159 17.6505 7.17283 16.2701C6.75306 14.9919 6.53271 13.6566 6.51953 12.3113V11.628C6.52094 10.2098 6.74752 8.80074 7.19081 7.45353C7.63507 6.08569 8.33808 4.81596 9.2616 3.71349C10.2352 2.56069 11.4535 1.63932 12.8278 1.01637C14.441 0.307061 16.1905 -0.0387494 17.9523 0.0034454C19.8041 -0.0396973 21.6414 0.338445 23.3256 1.10928C24.8016 1.80429 26.0656 2.8801 26.9877 4.22597C27.9222 5.62523 28.49 7.23694 28.6389 8.91297H24.1827C24.0512 7.95409 23.6699 7.04665 23.0769 6.28177C22.505 5.56643 21.7603 5.00847 20.9132 4.66049C19.9718 4.28555 18.9654 4.1012 17.9523 4.11808C16.9242 4.0986 15.9033 4.29457 14.9555 4.69345C14.1091 5.05708 13.362 5.61817 12.7768 6.32973C12.177 7.06541 11.727 7.91142 11.4523 8.82005C11.1391 9.8504 10.9865 10.9228 10.9997 11.9997C10.9896 13.0546 11.1422 14.1049 11.4523 15.1133C11.7319 16.0314 12.1925 16.8843 12.8068 17.6217C13.4124 18.3394 14.174 18.9093 15.0334 19.2879C16.0024 19.7026 17.0484 19.9069 18.1022 19.8873C19.6383 19.9372 21.1502 19.4951 22.4176 18.6256C22.9956 18.2135 23.4831 17.6874 23.85 17.0798C24.217 16.4721 24.4557 15.7958 24.5513 15.0924H29.0045C28.8072 16.6848 28.2418 18.2094 27.3533 19.5456C26.4321 20.9293 25.167 22.0498 23.6822 22.7971C22.1239 23.5963 20.2649 23.9959 18.1052 23.9959Z" fill="#111111"/>
<path d="M44.2107 23.9961C42.3701 24.0402 40.5434 23.6672 38.8674 22.9053C37.4335 22.2314 36.1595 21.2599 35.1304 20.0553C34.1727 18.9294 33.4237 17.6416 32.9187 16.2524C32.4485 14.9911 32.2011 13.6577 32.1875 12.3116V11.6283C32.1926 10.209 32.4451 8.80138 32.9337 7.46877C33.4346 6.08162 34.2022 4.80596 35.1933 3.71377C36.2407 2.56122 37.5191 1.64222 38.9453 1.01665C40.6098 0.314746 42.4048 -0.0244148 44.2107 0.0217273C46.007 -0.0167959 47.7909 0.328538 49.4431 1.03465C50.87 1.66041 52.1494 2.57934 53.1981 3.73177C54.1873 4.82533 54.9547 6.10062 55.4577 7.48677C55.9463 8.81937 56.1988 10.227 56.2039 11.6463V12.3296C56.1903 13.6756 55.9428 15.0091 55.4726 16.2704C54.9676 17.6595 54.2187 18.9474 53.261 20.0733C52.2307 21.278 50.9558 22.2495 49.521 22.9233C47.8546 23.6774 46.0391 24.0441 44.2107 23.9961ZM44.2107 19.8815C45.2871 19.8994 46.3548 19.6869 47.3423 19.2582C48.2457 18.8585 49.053 18.27 49.7098 17.5321C50.3646 16.7935 50.8731 15.9372 51.2082 15.0087C51.5519 14.0472 51.7253 13.0331 51.7207 12.0119C51.7329 10.9413 51.5595 9.87669 51.2082 8.86529C50.8823 7.94147 50.3726 7.09327 49.7098 6.37193C49.0384 5.65584 48.2207 5.0927 47.3124 4.72073C46.3256 4.31255 45.2664 4.10866 44.1987 4.12137C43.1201 4.10702 42.0498 4.31089 41.052 4.72073C40.1431 5.09162 39.3252 5.6549 38.6546 6.37193C37.9905 7.09231 37.4806 7.94079 37.1562 8.86529C36.8038 9.87651 36.6295 10.9411 36.6407 12.0119C36.6371 13.0332 36.8115 14.0473 37.1562 15.0087C37.4903 15.9376 37.9989 16.7941 38.6546 17.5321C39.3182 18.2755 40.1365 18.8646 41.052 19.2582C42.0486 19.6887 43.1253 19.9022 44.2107 19.8845V19.8815Z" fill="#111111"/>
<path d="M61.2539 23.3965V0.656738H68.5182L78.0809 19.7194H79.1088L78.4855 20.2828V0.656738H82.6541V23.3965H75.3658L65.803 4.33082H64.7422L65.3655 3.77042V23.3965H61.2539Z" fill="#DD5529"/>
<path d="M78.4766 23.3965V0.656738H85.7348L95.3006 19.7194H96.3285L95.7052 20.2828V0.656738H99.8797V23.3965H92.5885L83.0257 4.33982H81.9678L82.6002 3.77942V23.3965H78.4766Z" fill="#DD5529"/>
<path d="M106.273 23.3965V0.656738H110.595V23.3965H106.273ZM109.98 4.39374V0.656738H120.041V4.39374H109.98ZM109.98 13.7078V9.97079H119.459V13.7078H109.98ZM109.98 23.3965V19.6595H120.289V23.3965H109.98Z" fill="#111111"/>
<path d="M123.148 23.3963L131.147 11.2862L131.18 11.8166L123.826 0.665527H128.749L133.67 8.29537H134.324L139.214 0.665527H143.952L136.505 11.9095L136.442 11.3821L144.633 23.3963H139.751L134.021 14.8614H133.365L127.883 23.3963H123.148Z" fill="#111111"/>
<path d="M157.729 23.9957C155.611 23.9957 153.825 23.5901 152.37 22.779C150.948 22.0003 149.792 20.8122 149.053 19.3686C148.264 17.7672 147.875 15.9987 147.917 14.2141V0.662598H152.341V14.4479C152.319 15.4339 152.533 16.4108 152.964 17.2978C153.363 18.1025 153.999 18.7656 154.786 19.1978C155.693 19.6697 156.707 19.8999 157.729 19.8661C158.741 19.8972 159.744 19.6671 160.642 19.1978C161.42 18.7686 162.048 18.1106 162.44 17.3128C162.86 16.4177 163.066 15.4365 163.039 14.4479V0.662598H167.462V14.2141C167.504 15.9953 167.125 17.7613 166.357 19.3686C165.633 20.8163 164.482 22.0067 163.06 22.779C161.626 23.5901 159.848 23.9957 157.729 23.9957Z" fill="#111111"/>
<path d="M181.196 23.9959C179.182 23.9959 177.483 23.6733 176.101 23.028C174.812 22.4643 173.713 21.5389 172.939 20.3638C172.207 19.2168 171.827 17.8798 171.848 16.5189H176.179C176.183 17.1394 176.355 17.7472 176.676 18.2781C177.057 18.8938 177.618 19.378 178.283 19.6656C179.202 20.0536 180.196 20.2337 181.193 20.193C182.119 20.2211 183.041 20.0621 183.905 19.7255C184.549 19.4771 185.11 19.0511 185.523 18.4968C185.876 17.99 186.061 17.3853 186.053 16.7677C186.061 16.3825 185.97 16.0019 185.79 15.6612C185.611 15.3205 185.347 15.031 185.025 14.8197C184.339 14.3343 183.281 14.0256 181.849 13.9027L179.853 13.7469C177.675 13.5591 175.936 12.8788 174.636 11.7061C173.335 10.5333 172.687 8.98096 172.691 7.04902C172.654 5.72325 173.012 4.41655 173.718 3.29405C174.426 2.22533 175.426 1.3819 176.598 0.863652C177.968 0.266045 179.45 -0.0264507 180.944 0.0065343C182.478 -0.0343514 184.002 0.273028 185.4 0.905575C186.589 1.45706 187.595 2.33802 188.298 3.44389C189.001 4.60217 189.357 5.93734 189.326 7.29178H184.986C184.99 6.68568 184.834 6.08934 184.534 5.56262C184.217 5.01873 183.753 4.57599 183.194 4.28598C182.493 3.93899 181.716 3.77312 180.935 3.8035C180.185 3.77778 179.439 3.92651 178.756 4.23802C178.21 4.49862 177.754 4.91594 177.447 5.43674C177.158 5.92814 177.008 6.48831 177.012 7.05802C177.01 7.40305 177.078 7.74492 177.211 8.06315C177.345 8.38137 177.541 8.66942 177.788 8.91006C178.31 9.44049 179.128 9.74615 180.252 9.83006L182.244 10.0159C183.716 10.1052 185.161 10.4532 186.512 11.0438C187.649 11.5324 188.633 12.3181 189.362 13.3183C190.055 14.3358 190.409 15.546 190.375 16.7767C190.4 18.1236 190.008 19.4455 189.254 20.5616C188.452 21.6945 187.344 22.5751 186.059 23.0999C184.517 23.7297 182.861 24.0347 181.196 23.9959Z" fill="#111111"/>
</svg>
