<svg width="80" height="40" viewBox="0 0 80 40" fill="none" xmlns="http://www.w3.org/2000/svg">
<rect width="80" height="40" rx="4" fill="#DEDEDE"/>
<mask id="mask0_609_3020" style="mask-type:alpha" maskUnits="userSpaceOnUse" x="8" y="8" width="24" height="24">
<rect x="8" y="8" width="24" height="24" rx="12" fill="#D9D9D9"/>
</mask>
<g mask="url(#mask0_609_3020)">
<rect x="8" y="8" width="24" height="24" fill="#D9D9D9"/>
</g>
<g clip-path="url(#clip0_609_3020)">
<path d="M20.0004 8H19.7031V8.00365C19.8019 8.00125 19.9011 8 20.0004 8Z" fill="#B22234"/>
<path d="M19.7031 9.84618H26.3983C24.5463 8.6769 22.3524 8 20.0004 8C19.9011 8 19.8019 8.00125 19.7031 8.00365V9.84608V9.84618Z" fill="#B22234"/>
<path d="M19.7031 13.5386H30.1139C29.6896 12.8759 29.2019 12.2576 28.6594 11.6924H19.7031V13.5386Z" fill="#B22234"/>
<path d="M19.7031 20.9232H31.9655C31.9886 20.6185 32.0004 20.3107 32.0004 20.0002C32.0004 19.6896 31.9886 19.3818 31.9655 19.0771H19.7031V20.9233V20.9232Z" fill="#B22234"/>
<path d="M19.7031 17.2309H31.6791C31.5288 16.5945 31.3278 15.9776 31.0806 15.3848H19.7031V17.2309Z" fill="#B22234"/>
<path d="M11.3412 28.3076H28.6592C29.2017 27.7424 29.6894 27.1242 30.1137 26.4614H9.88672C10.311 27.1241 10.7987 27.7424 11.3412 28.3076Z" fill="#B22234"/>
<path d="M8.91897 24.6152H31.0791C31.3263 24.0224 31.5274 23.4055 31.6777 22.769H8.32031C8.47065 23.4055 8.67167 24.0224 8.91887 24.6152H8.91897Z" fill="#B22234"/>
<path d="M13.6016 30.1538C15.4534 31.3231 17.6473 32 19.9994 32C22.3515 32 24.5453 31.3231 26.3972 30.1538H13.6016Z" fill="#B22234"/>
<path d="M19.7031 19.0771H31.9655C31.9176 18.4469 31.8207 17.8303 31.6791 17.231H19.7031V19.0771Z" fill="#EFEFEF"/>
<path d="M9.8884 26.4614H30.1154C30.4886 25.8785 30.8127 25.2611 31.0819 24.6152H8.92188C9.19125 25.2611 9.51525 25.8785 9.8884 26.4614Z" fill="#EFEFEF"/>
<path d="M8.03516 20.9229C8.08306 21.5531 8.17992 22.1697 8.32152 22.769H31.6789C31.8205 22.1697 31.9173 21.5532 31.9653 20.9229H8.03516Z" fill="#EFEFEF"/>
<path d="M13.6049 30.1538H26.4005C27.228 29.6313 27.9873 29.0104 28.6617 28.3076H11.3438C12.0182 29.0104 12.7774 29.6313 13.6049 30.1538Z" fill="#EFEFEF"/>
<path d="M19.7031 15.3848H31.0806C30.8112 14.7389 30.4872 14.1215 30.114 13.5386H19.7032V15.3848H19.7031Z" fill="#EFEFEF"/>
<path d="M19.7031 11.6924H28.6594C27.9849 10.9896 27.2258 10.3687 26.3983 9.84619H19.7031V11.6924Z" fill="#EFEFEF"/>
<path d="M10.5078 12.6553C10.4349 12.7494 10.3631 12.8445 10.293 12.9409H10.415L10.5078 12.6553Z" fill="#3C3B6E"/>
<path d="M8.7934 17.1332L8.41449 16.8579C8.38108 16.9814 8.34978 17.1057 8.32031 17.2307H8.76172L8.7934 17.1332Z" fill="#3C3B6E"/>
<path d="M14.7695 9.84599H15.5178L15.1436 9.57422L14.7695 9.84599Z" fill="#3C3B6E"/>
<path d="M16.543 13.5383H16.7829L16.6629 13.4512L16.543 13.5383Z" fill="#3C3B6E"/>
<path d="M17.8086 9.84599H18.5567L18.1827 9.57422L17.8086 9.84599Z" fill="#3C3B6E"/>
<path d="M15.8456 9.06393L15.4116 9.37929L15.5632 9.84595H17.7635L17.9151 9.37929L17.4811 9.06393H18.0177L18.1835 8.55369L18.3492 9.06393H18.8858L18.4518 9.37929L18.6035 9.84595H19.7035V8.00342C18.135 8.04153 16.6411 8.38079 15.2773 8.96534L15.3093 9.06383H15.8459L15.8456 9.06393Z" fill="#3C3B6E"/>
<path d="M14.7221 9.84608L14.8738 9.37943L14.6815 9.23975C14.3101 9.42359 13.9499 9.62615 13.6016 9.84608H14.7222H14.7221Z" fill="#3C3B6E"/>
<path d="M11.2847 12.9412L10.8507 13.2565L10.9424 13.5386H13.2626L13.3543 13.2565L12.9203 12.9412H13.4568L13.6226 12.4309L13.7884 12.9412H14.3249L13.8909 13.2565L13.9826 13.5386H16.3028L16.3945 13.2565L15.9605 12.9412H16.497L16.6628 12.4309L16.8286 12.9412H17.3652L16.9311 13.2565L17.0228 13.5386H19.7029V11.6924H18.8253L18.4512 11.9642L18.617 12.4744L18.183 12.159L17.749 12.4744L17.9148 11.9642L17.5406 11.6924H15.7853L15.4112 11.9642L15.577 12.4744L15.1429 12.159L14.7089 12.4744L14.8747 11.9642L14.5006 11.6924H12.7452L12.3711 11.9642L12.5369 12.4744L12.1029 12.159L11.6689 12.4744L11.8347 11.9642L11.4606 11.6924H11.3412C11.0862 11.9582 10.8432 12.2357 10.6133 12.5241L10.7487 12.9412H11.2853H11.2847Z" fill="#3C3B6E"/>
<path d="M10.4609 13.5383H10.7009L10.5809 13.4512L10.4609 13.5383Z" fill="#3C3B6E"/>
<path d="M9.06178 16.3074L9.22757 16.8177H9.76412L9.3301 17.133L9.36178 17.2305H11.8019L11.8336 17.133L11.3996 16.8177H11.9361L12.1019 16.3074L12.2677 16.8177H12.8042L12.3702 17.133L12.4019 17.2305H14.842L14.8737 17.133L14.4397 16.8177H14.9762L15.142 16.3074L15.3078 16.8177H15.8444L15.4104 17.133L15.442 17.2305H17.8822L17.9138 17.133L17.4798 16.8177H18.0164L18.1822 16.3074L18.348 16.8177H18.8845L18.4505 17.133L18.4822 17.2305H19.7022V15.3843H16.7822L16.828 15.5253H17.3645L16.9305 15.8407L17.0963 16.3509L16.6623 16.0355L16.2283 16.3509L16.3941 15.8407L15.9601 15.5253H16.4966L16.5424 15.3843H13.7424L13.7881 15.5253H14.3247L13.8907 15.8407L14.0565 16.3509L13.6225 16.0355L13.1884 16.3509L13.3542 15.8407L12.9202 15.5253H13.4568L13.5025 15.3843H10.7025L10.7483 15.5253H11.2849L10.8508 15.8407L11.0166 16.3509L10.5826 16.0355L10.1486 16.3509L10.3144 15.8407L9.88037 15.5253H10.4169L10.4627 15.3843H8.91903C8.72559 15.8481 8.56047 16.3265 8.42578 16.8177H8.89599L9.06178 16.3074Z" fill="#3C3B6E"/>
<path d="M19.7027 19.0768H18.2427L18.3485 19.4024H18.8851L18.451 19.7177L18.6168 20.228L18.1828 19.9126L17.7488 20.228L17.9146 19.7177L17.4806 19.4024H18.0171L18.1229 19.0768H15.2029L15.3087 19.4024H15.8452L15.4112 19.7177L15.577 20.228L15.143 19.9126L14.709 20.228L14.8748 19.7177L14.4407 19.4024H14.9773L15.0831 19.0768H12.163L12.2688 19.4024H12.8054L12.3714 19.7177L12.5372 20.228L12.1031 19.9126L11.6691 20.228L11.8349 19.7177L11.4009 19.4024H11.9374L12.0432 19.0768H9.12272L9.22851 19.4024H9.76506L9.33104 19.7177L9.49683 20.228L9.06282 19.9126L8.6288 20.228L8.79459 19.7177L8.36058 19.4024H8.89712L9.00291 19.0768H8.03494C8.01181 19.3814 8 19.6892 8 19.9998C8 20.3104 8.01181 20.6182 8.03494 20.9228H19.7027V19.0767V19.0768Z" fill="#3C3B6E"/>
<path d="M10.3147 13.2566L10.1537 13.1396C10.0621 13.2708 9.97302 13.4037 9.88672 13.5386H10.223L10.3147 13.2566Z" fill="#3C3B6E"/>
<path d="M13.5 13.5383H13.7399L13.62 13.4512L13.5 13.5383Z" fill="#3C3B6E"/>
<path d="M9.06255 18.8925L9.12255 19.0771H12.0426L12.1026 18.8925L12.1626 19.0771H15.0826L15.1426 18.8925L15.2026 19.0771H18.1226L18.1826 18.8925L18.2426 19.0771H19.7026V17.231H18.4825L18.6167 17.6438L18.1826 17.3284L17.7486 17.6438L17.8827 17.231H15.4426L15.5767 17.6438L15.1427 17.3284L14.7087 17.6438L14.8428 17.231H12.4027L12.5368 17.6438L12.1028 17.3284L11.6688 17.6438L11.8029 17.231H9.36274L9.49685 17.6438L9.06284 17.3284L8.62882 17.6438L8.76293 17.231H8.32152C8.25317 17.5202 8.19538 17.8135 8.14834 18.1104H8.2452L8.13596 18.1898C8.0917 18.4822 8.05791 18.7781 8.03516 19.0771H9.00284L9.06284 18.8925H9.06255ZM16.4968 18.1105L16.6626 17.6003L16.8284 18.1105H17.3649L16.9309 18.4259L17.0967 18.9361L16.6627 18.6207L16.2287 18.9361L16.3945 18.4259L15.9604 18.1105H16.497H16.4968ZM13.4568 18.1105L13.6225 17.6003L13.7883 18.1105H14.3249L13.8909 18.4259L14.0567 18.9361L13.6226 18.6207L13.1886 18.9361L13.3544 18.4259L12.9204 18.1105H13.4569H13.4568ZM10.4167 18.1105L10.5825 17.6003L10.7483 18.1105H11.2849L10.8508 18.4259L11.0166 18.9361L10.5826 18.6207L10.1486 18.9361L10.3144 18.4259L9.88037 18.1105H10.4169H10.4167Z" fill="#3C3B6E"/>
<path d="M10.585 15.0155L10.705 15.3848H13.505L13.625 15.0155L13.745 15.3848H16.545L16.665 15.0155L16.785 15.3848H19.7051V13.5386H17.0249L17.0991 13.7668L16.7849 13.5386H16.545L16.2309 13.7668L16.305 13.5386H13.9848L14.0589 13.7668L13.7448 13.5386H13.5049L13.1908 13.7668L13.2649 13.5386H10.9447L11.0188 13.7668L10.7047 13.5386H10.4648L10.1507 13.7668L10.2248 13.5386H9.8885C9.74344 13.7651 9.60597 13.9969 9.47608 14.2334H9.76696L9.33295 14.5488L9.49874 15.059L9.17339 14.8227C9.08488 15.0075 9.00108 15.1949 8.92188 15.3847H10.4647L10.5847 15.0154L10.585 15.0155ZM18.0192 14.2335L18.185 13.7233L18.3508 14.2335H18.8873L18.4533 14.5489L18.6191 15.0591L18.1851 14.7438L17.7511 15.0591L17.9169 14.5489L17.4829 14.2335H18.0194H18.0192ZM14.9792 14.2335L15.145 13.7233L15.3108 14.2335H15.8473L15.4133 14.5489L15.5791 15.0591L15.1451 14.7438L14.7111 15.0591L14.8769 14.5489L14.4428 14.2335H14.9794H14.9792ZM11.9392 14.2335L12.1049 13.7233L12.2707 14.2335H12.8073L12.3733 14.5489L12.5391 15.0591L12.105 14.7438L11.671 15.0591L11.8368 14.5489L11.4028 14.2335H11.9393H11.9392Z" fill="#3C3B6E"/>
<path d="M11.4023 11.6488H11.9389L12.1046 11.1385L12.2704 11.6488H12.807L12.747 11.6924H14.5023L14.4423 11.6488H14.9789L15.1447 11.1385L15.3105 11.6488H15.847L15.787 11.6924H17.5424L17.4824 11.6488H18.0189L18.1847 11.1385L18.3505 11.6488H18.887L18.827 11.6924H19.7047V9.84619H18.6046L18.6188 9.88978L18.5588 9.84619H17.8107L17.7507 9.88978L17.7649 9.84619H16.6648L16.8306 10.3564H17.3672L16.9332 10.6718L17.099 11.182L16.6649 10.8667L16.2309 11.182L16.3967 10.6718L15.9627 10.3564H16.4992L16.665 9.84619H15.565L15.5792 9.88978L15.5192 9.84619H14.771L14.711 9.88978L14.7253 9.84619H13.6252L13.791 10.3564H14.3275L13.8935 10.6718L14.0593 11.182L13.6253 10.8667L13.1913 11.182L13.3571 10.6718L12.923 10.3564H13.4596L13.6254 9.84619H13.6049C12.7774 10.3687 12.0182 10.9896 11.3438 11.6924H11.4631L11.4031 11.6488H11.4023Z" fill="#3C3B6E"/>
<path d="M8.1491 18.1104C8.14488 18.1368 8.14065 18.1632 8.13672 18.1897L8.24597 18.1104H8.1491Z" fill="#EFEFEF"/>
<path d="M9.33143 14.5488L9.76544 14.2334H9.47456C9.36848 14.4266 9.26749 14.6232 9.17188 14.8226L9.49722 15.059L9.33143 14.5488Z" fill="#EFEFEF"/>
<path d="M8.35938 16.8179L8.41458 16.8579C8.41822 16.8446 8.42197 16.8312 8.42571 16.8179H8.35947H8.35938Z" fill="#EFEFEF"/>
<path d="M8.76139 17.2307H9.3612L9.32952 17.1332L9.76353 16.8179H9.22699L9.0612 16.3076L8.89541 16.8179H8.4252C8.42155 16.8312 8.41771 16.8445 8.41406 16.8579L8.79297 17.1332L8.76129 17.2307H8.76139Z" fill="#EFEFEF"/>
<path d="M8.62891 17.6438L9.06302 17.3284L9.49703 17.6438L9.36292 17.231H8.76302L8.62891 17.6438Z" fill="#EFEFEF"/>
<path d="M8.89592 19.4028H8.35938L8.79339 19.7181L8.6276 20.2284L9.06171 19.913L9.49573 20.2284L9.32993 19.7181L9.76395 19.4028H9.2275L9.12171 19.0771H9.00171L8.89592 19.4028Z" fill="#EFEFEF"/>
<path d="M9 19.0772H9.12L9.06 18.8926L9 19.0772Z" fill="#EFEFEF"/>
<path d="M10.5808 12.4308L10.5078 12.6554C10.542 12.6113 10.5764 12.5676 10.6111 12.524L10.5808 12.4307V12.4308Z" fill="#EFEFEF"/>
<path d="M10.2256 13.5384H10.4655L10.5855 13.4512L10.7055 13.5384H10.9454L10.8537 13.2563L11.2877 12.9409H10.7512L10.6157 12.5239C10.581 12.5675 10.5465 12.6113 10.5124 12.6553L10.4196 12.9409H10.2976C10.2498 13.0065 10.2027 13.0728 10.1562 13.1394L10.3172 13.2563L10.2256 13.5384Z" fill="#EFEFEF"/>
<path d="M10.1484 13.7668L10.4625 13.5386H10.2225L10.1484 13.7668Z" fill="#EFEFEF"/>
<path d="M11.0171 13.7668L10.943 13.5386H10.7031L11.0171 13.7668Z" fill="#EFEFEF"/>
<path d="M10.4194 15.5258H9.88281L10.3169 15.8411L10.1511 16.3514L10.5851 16.036L11.0192 16.3514L10.8534 15.8411L11.2875 15.5258H10.7509L10.7051 15.3848H10.4651L10.4194 15.5258Z" fill="#EFEFEF"/>
<path d="M10.4609 15.3848H10.7009L10.5809 15.0156L10.4609 15.3848Z" fill="#EFEFEF"/>
<path d="M10.1511 18.936L10.5851 18.6207L11.0192 18.936L10.8534 18.4257L11.2875 18.1103H10.7509L10.5851 17.6001L10.4194 18.1103H9.88281L10.3169 18.4257L10.1511 18.936Z" fill="#EFEFEF"/>
<path d="M11.835 11.9642L11.6693 12.4744L12.1033 12.159L12.5374 12.4744L12.3716 11.9642L12.7456 11.6924H11.4609L11.835 11.9642Z" fill="#EFEFEF"/>
<path d="M12.2704 11.649L12.1046 11.1387L11.9388 11.649H11.4023L11.4622 11.6926H12.7469L12.8069 11.649H12.2704Z" fill="#EFEFEF"/>
<path d="M11.6706 15.0591L12.1046 14.7437L12.5387 15.0591L12.3729 14.5488L12.8069 14.2335H12.2704L12.1046 13.7231L11.9388 14.2335H11.4023L11.8364 14.5488L11.6706 15.0591Z" fill="#EFEFEF"/>
<path d="M12.8069 16.818H12.2704L12.1046 16.3076L11.9388 16.818H11.4023L11.8364 17.1333L11.8047 17.2308H12.4046L12.3729 17.1333L12.8069 16.818Z" fill="#EFEFEF"/>
<path d="M11.668 17.6438L12.102 17.3284L12.5361 17.6438L12.402 17.231H11.8021L11.668 17.6438Z" fill="#EFEFEF"/>
<path d="M11.9388 19.4028H11.4023L11.8364 19.7181L11.6706 20.2284L12.1046 19.913L12.5387 20.2284L12.3729 19.7181L12.8069 19.4028H12.2704L12.1646 19.0771H12.0446L11.9388 19.4028Z" fill="#EFEFEF"/>
<path d="M12.043 19.0772H12.163L12.103 18.8926L12.043 19.0772Z" fill="#EFEFEF"/>
<path d="M12.9219 10.3564L13.3559 10.6718L13.1901 11.182L13.6242 10.8667L14.0582 11.182L13.8924 10.6718L14.3265 10.3564H13.79L13.6242 9.84619L13.4584 10.3564H12.9219Z" fill="#EFEFEF"/>
<path d="M14.3265 12.9409H13.79L13.6242 12.4307L13.4584 12.9409H12.9219L13.3559 13.2563L13.2643 13.5383H13.5042L13.6242 13.4511L13.7441 13.5383H13.9841L13.8924 13.2563L14.3265 12.9409Z" fill="#EFEFEF"/>
<path d="M14.0563 13.7668L13.9822 13.5386H13.7422L14.0563 13.7668Z" fill="#EFEFEF"/>
<path d="M13.1875 13.7668L13.5016 13.5386H13.2617L13.1875 13.7668Z" fill="#EFEFEF"/>
<path d="M13.4584 15.5258H12.9219L13.3559 15.8411L13.1901 16.3514L13.6242 16.036L14.0582 16.3514L13.8924 15.8411L14.3265 15.5258H13.79L13.7441 15.3848H13.5042L13.4584 15.5258Z" fill="#EFEFEF"/>
<path d="M13.5 15.3848H13.7399L13.62 15.0156L13.5 15.3848Z" fill="#EFEFEF"/>
<path d="M13.1901 18.936L13.6242 18.6207L14.0582 18.936L13.8924 18.4257L14.3265 18.1103H13.79L13.6242 17.6001L13.4584 18.1103H12.9219L13.3559 18.4257L13.1901 18.936Z" fill="#EFEFEF"/>
<path d="M14.7204 9.84633H14.7662L15.1403 9.57456L15.5144 9.84633H15.5602L15.4085 9.37968L15.8425 9.06432H15.306L15.274 8.96582C15.073 9.05193 14.8749 9.14332 14.6797 9.24L14.872 9.37968L14.7203 9.84633H14.7204Z" fill="#EFEFEF"/>
<path d="M15.5755 9.88978L15.5614 9.84619H15.5156L15.5755 9.88978Z" fill="#EFEFEF"/>
<path d="M14.7109 9.88978L14.7708 9.84619H14.725L14.7109 9.88978Z" fill="#EFEFEF"/>
<path d="M14.8741 11.9642L14.7083 12.4744L15.1423 12.159L15.5764 12.4744L15.4106 11.9642L15.7847 11.6924H14.5L14.8741 11.9642Z" fill="#EFEFEF"/>
<path d="M15.3056 11.649L15.1398 11.1387L14.974 11.649H14.4375L14.4975 11.6926H15.7822L15.8422 11.649H15.3056Z" fill="#EFEFEF"/>
<path d="M14.7058 15.0591L15.1398 14.7437L15.5739 15.0591L15.4081 14.5488L15.8422 14.2335H15.3056L15.1398 13.7231L14.974 14.2335H14.4375L14.8716 14.5488L14.7058 15.0591Z" fill="#EFEFEF"/>
<path d="M15.8422 16.818H15.3056L15.1398 16.3076L14.974 16.818H14.4375L14.8716 17.1333L14.8399 17.2308H15.4397L15.4081 17.1333L15.8422 16.818Z" fill="#EFEFEF"/>
<path d="M14.7109 17.6438L15.145 17.3284L15.579 17.6438L15.4449 17.231H14.845L14.7109 17.6438Z" fill="#EFEFEF"/>
<path d="M14.974 19.4028H14.4375L14.8716 19.7181L14.7058 20.2284L15.1398 19.913L15.5739 20.2284L15.4081 19.7181L15.8422 19.4028H15.3056L15.1998 19.0771H15.0798L14.974 19.4028Z" fill="#EFEFEF"/>
<path d="M15.082 19.0772H15.202L15.142 18.8926L15.082 19.0772Z" fill="#EFEFEF"/>
<path d="M15.9609 10.3564L16.395 10.6718L16.2293 11.182L16.6633 10.8667L17.0974 11.182L16.9316 10.6718L17.3656 10.3564H16.8291L16.6633 9.84619L16.4975 10.3564H15.9609Z" fill="#EFEFEF"/>
<path d="M17.3656 12.9409H16.8291L16.6633 12.4307L16.4975 12.9409H15.9609L16.395 13.2563L16.3034 13.5383H16.5434L16.6633 13.4511L16.7833 13.5383H17.0232L16.9316 13.2563L17.3656 12.9409Z" fill="#EFEFEF"/>
<path d="M17.0954 13.7668L17.0212 13.5386H16.7812L17.0954 13.7668Z" fill="#EFEFEF"/>
<path d="M16.2305 13.7668L16.5446 13.5386H16.3046L16.2305 13.7668Z" fill="#EFEFEF"/>
<path d="M16.4975 15.5258H15.9609L16.395 15.8411L16.2293 16.3514L16.6633 16.036L17.0974 16.3514L16.9316 15.8411L17.3656 15.5258H16.8291L16.7833 15.3848H16.5434L16.4975 15.5258Z" fill="#EFEFEF"/>
<path d="M16.543 15.3848H16.7829L16.6629 15.0156L16.543 15.3848Z" fill="#EFEFEF"/>
<path d="M16.2293 18.936L16.6633 18.6207L17.0974 18.936L16.9316 18.4257L17.3656 18.1103H16.8291L16.6633 17.6001L16.4975 18.1103H15.9609L16.395 18.4257L16.2293 18.936Z" fill="#EFEFEF"/>
<path d="M18.885 9.06405H18.3486L18.1828 8.55371L18.017 9.06405H17.4805L17.9145 9.37931L17.7629 9.84606H17.8087L18.1828 9.57429L18.5568 9.84606H18.6027L18.451 9.37931L18.885 9.06405Z" fill="#EFEFEF"/>
<path d="M18.6186 9.88978L18.6045 9.84619H18.5586L18.6186 9.88978Z" fill="#EFEFEF"/>
<path d="M17.75 9.88978L17.81 9.84619H17.7642L17.75 9.88978Z" fill="#EFEFEF"/>
<path d="M17.9131 11.9642L17.7473 12.4744L18.1814 12.159L18.6154 12.4744L18.4496 11.9642L18.8237 11.6924H17.5391L17.9131 11.9642Z" fill="#EFEFEF"/>
<path d="M18.3486 11.649L18.1828 11.1387L18.017 11.649H17.4805L17.5405 11.6926H18.8251L18.885 11.649H18.3486Z" fill="#EFEFEF"/>
<path d="M17.7487 15.0591L18.1828 14.7437L18.6168 15.0591L18.451 14.5488L18.885 14.2335H18.3486L18.1828 13.7231L18.017 14.2335H17.4805L17.9145 14.5488L17.7487 15.0591Z" fill="#EFEFEF"/>
<path d="M18.885 16.818H18.3486L18.1828 16.3076L18.017 16.818H17.4805L17.9145 17.1333L17.8828 17.2308H18.4827L18.451 17.1333L18.885 16.818Z" fill="#EFEFEF"/>
<path d="M17.75 17.6438L18.1841 17.3284L18.6181 17.6438L18.484 17.231H17.8841L17.75 17.6438Z" fill="#EFEFEF"/>
<path d="M18.017 19.4028H17.4805L17.9145 19.7181L17.7487 20.2284L18.1828 19.913L18.6168 20.2284L18.451 19.7181L18.885 19.4028H18.3486L18.2428 19.0771H18.1228L18.017 19.4028Z" fill="#EFEFEF"/>
<path d="M18.125 19.0772H18.245L18.185 18.8926L18.125 19.0772Z" fill="#EFEFEF"/>
</g>
<path d="M41.484 25V14.78H42.856V25H41.484ZM42.576 25V23.768H47.532V25H42.576ZM42.576 20.422V19.19H47.098V20.422H42.576ZM42.576 16.012V14.78H47.392V16.012H42.576ZM49.8785 25V14.78H52.1185L57.3125 23.768H57.7605L57.4805 24.02V14.78H58.7965V25H56.5285L51.3345 16.012H50.8865L51.1665 15.76V25H49.8785ZM66.3234 25.252C65.5301 25.252 64.8114 25.1213 64.1674 24.86C63.5234 24.5987 62.9681 24.23 62.5014 23.754C62.0441 23.278 61.6894 22.718 61.4374 22.074C61.1854 21.4207 61.0594 20.7113 61.0594 19.946V19.638C61.0594 18.9847 61.1714 18.3547 61.3954 17.748C61.6287 17.132 61.9601 16.5813 62.3894 16.096C62.8281 15.6013 63.3601 15.214 63.9854 14.934C64.6107 14.6447 65.3154 14.5 66.0994 14.5C66.9487 14.5 67.7047 14.6633 68.3674 14.99C69.0301 15.3073 69.5621 15.7553 69.9634 16.334C70.3647 16.9033 70.5981 17.566 70.6634 18.322H69.2634C69.1981 17.7527 69.0114 17.2813 68.7034 16.908C68.3954 16.5253 68.0127 16.2407 67.5554 16.054C67.1074 15.858 66.6221 15.76 66.0994 15.76C65.5674 15.76 65.0774 15.858 64.6294 16.054C64.1814 16.2407 63.7941 16.5113 63.4674 16.866C63.1501 17.2207 62.9027 17.6453 62.7254 18.14C62.5481 18.6347 62.4594 19.19 62.4594 19.806C62.4594 20.506 62.5527 21.122 62.7394 21.654C62.9354 22.1767 63.2061 22.6153 63.5514 22.97C63.8967 23.3153 64.3027 23.5767 64.7694 23.754C65.2454 23.9313 65.7634 24.02 66.3234 24.02C67.1167 24.02 67.8121 23.8613 68.4094 23.544C69.0161 23.2173 69.4734 22.7973 69.7814 22.284L69.2774 23.95V20.912H70.5654V23.348C70.1081 23.9453 69.5201 24.412 68.8014 24.748C68.0827 25.084 67.2567 25.252 66.3234 25.252ZM65.9594 21.192V20.044H71.4334V21.192H65.9594Z" fill="#2F2F2F"/>
<defs>
<clipPath id="clip0_609_3020">
<rect width="24" height="24" fill="white" transform="translate(8 8)"/>
</clipPath>
</defs>
</svg>
