<svg width="32" height="32" viewBox="0 0 32 32" fill="none" xmlns="http://www.w3.org/2000/svg">
<mask id="mask0_745_8952" style="mask-type:alpha" maskUnits="userSpaceOnUse" x="0" y="0" width="32" height="32">
<rect width="32" height="32" rx="16" fill="#D9D9D9"/>
</mask>
<g mask="url(#mask0_745_8952)">
<rect width="32" height="32" fill="#DEDEDE"/>
</g>
<g clip-path="url(#clip0_745_8952)">
<path d="M15.9999 0H15.6035V0.004864C15.7352 0.001664 15.8675 0 15.9999 0Z" fill="#B22234"/>
<path d="M15.6035 2.46157H24.5304C22.0611 0.902528 19.1359 0 15.9999 0C15.8675 0 15.7352 0.001664 15.6035 0.004864V2.46144V2.46157Z" fill="#B22234"/>
<path d="M15.6035 7.38491H29.4846C28.9188 6.50132 28.2686 5.677 27.5453 4.92334H15.6035V7.38491Z" fill="#B22234"/>
<path d="M15.6035 17.231H31.9533C31.9842 16.8247 31.9999 16.4143 31.9999 16.0003C31.9999 15.5862 31.9842 15.1757 31.9533 14.7695H15.6035V17.2311V17.231Z" fill="#B22234"/>
<path d="M15.6035 12.3078H31.5715C31.3711 11.4591 31.103 10.6366 30.7734 9.84619H15.6035V12.3078Z" fill="#B22234"/>
<path d="M4.45495 27.0768H27.5456C28.269 26.3231 28.9192 25.4989 29.485 24.6152H2.51562C3.08139 25.4988 3.73162 26.3231 4.45495 27.0768Z" fill="#B22234"/>
<path d="M1.22594 22.1535H30.7728C31.1024 21.3631 31.3705 20.5405 31.5709 19.6919H0.427734C0.628182 20.5405 0.896214 21.3631 1.22581 22.1535H1.22594Z" fill="#B22234"/>
<path d="M7.46875 29.5386C9.93787 31.0976 12.8631 32.0001 15.9992 32.0001C19.1353 32.0001 22.0604 31.0976 24.5296 29.5386H7.46875Z" fill="#B22234"/>
<path d="M15.6035 14.7697H31.9533C31.8895 13.9294 31.7603 13.1072 31.5715 12.3081H15.6035V14.7697Z" fill="#EFEFEF"/>
<path d="M2.51722 24.6154H29.4866C29.9841 23.8382 30.4162 23.015 30.7753 22.1538H1.22852C1.58768 23.015 2.01968 23.8382 2.51722 24.6154Z" fill="#EFEFEF"/>
<path d="M0.046875 17.231C0.110747 18.0713 0.239899 18.8934 0.428699 19.6925H31.5719C31.7607 18.8934 31.8897 18.0714 31.9537 17.231H0.046875Z" fill="#EFEFEF"/>
<path d="M7.4739 29.5382H24.5346C25.638 28.8415 26.6503 28.0137 27.5495 27.0767H4.45898C5.35831 28.0137 6.37054 28.8415 7.4739 29.5382Z" fill="#EFEFEF"/>
<path d="M15.6035 9.84633H30.7734C30.4143 8.98515 29.9823 8.16198 29.4847 7.38477H15.6036V9.84633H15.6035Z" fill="#EFEFEF"/>
<path d="M15.6035 4.92299H27.5453C26.6459 3.98591 25.6337 3.15813 24.5304 2.46143H15.6035V4.92299Z" fill="#EFEFEF"/>
<path d="M3.3431 6.20703C3.24582 6.3326 3.15021 6.45932 3.05664 6.58783H3.21933L3.3431 6.20703Z" fill="#3C3B6E"/>
<path d="M1.05852 12.1777L0.553302 11.8105C0.508758 11.9752 0.46703 12.1409 0.427734 12.3076H1.01628L1.05852 12.1777Z" fill="#3C3B6E"/>
<path d="M9.02539 2.46149H10.023L9.52421 2.09912L9.02539 2.46149Z" fill="#3C3B6E"/>
<path d="M11.3906 7.38478H11.7105L11.5505 7.26855L11.3906 7.38478Z" fill="#3C3B6E"/>
<path d="M13.0781 2.46149H14.0756L13.5769 2.09912L13.0781 2.46149Z" fill="#3C3B6E"/>
<path d="M10.4608 1.41841L9.88207 1.83889L10.0843 2.4611H13.0179L13.2202 1.83889L12.6415 1.41841H13.3569L13.5779 0.738091L13.799 1.41841H14.5144L13.9357 1.83889L14.1379 2.4611H15.6047V0.00439453C13.5133 0.0552105 11.5215 0.507563 9.70312 1.28695L9.74575 1.41828H10.4611L10.4608 1.41841Z" fill="#3C3B6E"/>
<path d="M8.96277 2.46128L9.16501 1.83907L8.90862 1.65283C8.41352 1.89795 7.93313 2.16803 7.46875 2.46128H8.96289H8.96277Z" fill="#3C3B6E"/>
<path d="M4.37961 6.58836L3.80092 7.00884L3.92316 7.38491H7.01679L7.13903 7.00884L6.56034 6.58836H7.27573L7.49679 5.90804L7.71785 6.58836H8.43324L7.85455 7.00884L7.97679 7.38491H11.0704L11.1927 7.00884L10.614 6.58836H11.3294L11.5504 5.90804L11.7715 6.58836H12.4869L11.9082 7.00884L12.0304 7.38491H15.6039V4.92334H14.4338L13.9349 5.28571L14.156 5.96603L13.5773 5.54555L12.9986 5.96603L13.2197 5.28571L12.7209 4.92334H10.3804L9.88156 5.28571L10.1026 5.96603L9.52393 5.54555L8.94524 5.96603L9.16629 5.28571L8.66748 4.92334H6.327L5.82818 5.28571L6.04924 5.96603L5.47055 5.54555L4.89186 5.96603L5.11292 5.28571L4.6141 4.92334H4.455C4.1149 5.27777 3.79093 5.64782 3.48438 6.03233L3.66498 6.58836H4.38037H4.37961Z" fill="#3C3B6E"/>
<path d="M3.28125 7.38429H3.60125L3.44125 7.26807L3.28125 7.38429Z" fill="#3C3B6E"/>
<path d="M1.41636 11.0766L1.63742 11.7569H2.35281L1.77412 12.1774L1.81636 12.3073H5.06986L5.1121 12.1774L4.53342 11.7569H5.24881L5.46986 11.0766L5.69092 11.7569H6.40631L5.82762 12.1774L5.86986 12.3073H9.12337L9.16561 12.1774L8.58692 11.7569H9.30231L9.52337 11.0766L9.74442 11.7569H10.4598L9.88113 12.1774L9.92337 12.3073H13.1769L13.2191 12.1774L12.6404 11.7569H13.3558L13.5769 11.0766L13.7979 11.7569H14.5133L13.9346 12.1774L13.9769 12.3073H15.6036V9.8457H11.7102L11.7713 10.0337H12.4867L11.908 10.4542L12.1291 11.1345L11.5504 10.7141L10.9717 11.1345L11.1927 10.4542L10.6141 10.0337H11.3294L11.3905 9.8457H7.65713L7.71818 10.0337H8.43358L7.85489 10.4542L8.07594 11.1345L7.49726 10.7141L6.91857 11.1345L7.13962 10.4542L6.56094 10.0337H7.27633L7.33738 9.8457H3.60401L3.66506 10.0337H4.38046L3.80177 10.4542L4.02282 11.1345L3.44414 10.7141L2.86545 11.1345L3.0865 10.4542L2.50782 10.0337H3.22321L3.28426 9.8457H1.22602C0.968103 10.4641 0.747943 11.102 0.568359 11.7569H1.1953L1.41636 11.0766Z" fill="#3C3B6E"/>
<path d="M15.6036 14.7692H13.657L13.798 15.2033H14.5134L13.9347 15.6238L14.1558 16.3041L13.5771 15.8837L12.9984 16.3041L13.2195 15.6238L12.6408 15.2033H13.3562L13.4972 14.7692H9.60384L9.74489 15.2033H10.4603L9.8816 15.6238L10.1027 16.3041L9.52397 15.8837L8.94528 16.3041L9.16634 15.6238L8.58765 15.2033H9.30304L9.4441 14.7692H5.55072L5.69178 15.2033H6.40717L5.82848 15.6238L6.04954 16.3041L5.47085 15.8837L4.89216 16.3041L5.11322 15.6238L4.53453 15.2033H5.24992L5.39098 14.7692H1.49696L1.63802 15.2033H2.35341L1.77472 15.6238L1.99578 16.3041L1.41709 15.8837L0.8384 16.3041L1.05946 15.6238L0.480768 15.2033H1.19616L1.33722 14.7692H0.046592C0.015744 15.1753 0 15.5858 0 15.9999C0 16.414 0.015744 16.8245 0.046592 17.2306H15.6036V14.769V14.7692Z" fill="#3C3B6E"/>
<path d="M3.08625 7.00844L2.87159 6.85254C2.74948 7.02739 2.6307 7.20467 2.51562 7.38451H2.96401L3.08625 7.00844Z" fill="#3C3B6E"/>
<path d="M7.33398 7.38429H7.65386L7.49398 7.26807L7.33398 7.38429Z" fill="#3C3B6E"/>
<path d="M1.41673 14.523L1.49673 14.7692H5.39011L5.47011 14.523L5.55011 14.7692H9.44348L9.52348 14.523L9.60348 14.7692H13.4969L13.5769 14.523L13.6569 14.7692H15.6035V12.3076H13.9767L14.1555 12.858L13.5769 12.4375L12.9982 12.858L13.177 12.3076H9.92348L10.1023 12.858L9.52361 12.4375L8.94492 12.858L9.12374 12.3076H5.87023L6.04905 12.858L5.47036 12.4375L4.89167 12.858L5.07049 12.3076H1.81699L1.9958 12.858L1.41711 12.4375L0.838427 12.858L1.01724 12.3076H0.428699C0.337563 12.6933 0.260507 13.0843 0.197787 13.4802H0.326939L0.181275 13.5861C0.122267 13.976 0.077211 14.3705 0.046875 14.7692H1.33711L1.41711 14.523H1.41673ZM11.3291 13.4804L11.5501 12.8L11.7712 13.4804H12.4866L11.9079 13.9008L12.1289 14.5812L11.5502 14.1607L10.9715 14.5812L11.1926 13.9008L10.6139 13.4804H11.3293H11.3291ZM7.27567 13.4804L7.49673 12.8L7.71779 13.4804H8.43318L7.85449 13.9008L8.07555 14.5812L7.49686 14.1607L6.91817 14.5812L7.13923 13.9008L6.56054 13.4804H7.27593H7.27567ZM3.2223 13.4804L3.44335 12.8L3.66441 13.4804H4.3798L3.80111 13.9008L4.02217 14.5812L3.44348 14.1607L2.86479 14.5812L3.08585 13.9008L2.50716 13.4804H3.22255H3.2223Z" fill="#3C3B6E"/>
<path d="M3.44599 9.35405L3.60599 9.84633H7.33936L7.49936 9.35405L7.65936 9.84633H11.3927L11.5527 9.35405L11.7127 9.84633H15.6061V7.38477H12.0326L12.1314 7.68902L11.7126 7.38477H11.3927L10.9739 7.68902L11.0727 7.38477H7.97911L8.07792 7.68902L7.65911 7.38477H7.33924L6.92042 7.68902L7.01924 7.38477H3.9256L4.02442 7.68902L3.6056 7.38477H3.28573L2.86692 7.68902L2.96573 7.38477H2.51735C2.32394 7.68685 2.14064 7.99584 1.96746 8.31123H2.3553L1.77661 8.73171L1.99767 9.41203L1.56388 9.09689C1.44586 9.34329 1.33412 9.59315 1.22852 9.84621H3.2856L3.4456 9.35392L3.44599 9.35405ZM13.3583 8.31136L13.5794 7.63104L13.8004 8.31136H14.5158L13.9371 8.73184L14.1582 9.41216L13.5795 8.99168L13.0008 9.41216L13.2219 8.73184L12.6432 8.31136H13.3586H13.3583ZM9.30493 8.31136L9.52599 7.63104L9.74704 8.31136H10.4624L9.88375 8.73184L10.1048 9.41216L9.52612 8.99168L8.94743 9.41216L9.16848 8.73184L8.5898 8.31136H9.30519H9.30493ZM5.25156 8.31136L5.47261 7.63104L5.69367 8.31136H6.40906L5.83037 8.73184L6.05143 9.41216L5.47274 8.99168L4.89405 9.41216L5.11511 8.73184L4.53642 8.31136H5.25181H5.25156Z" fill="#3C3B6E"/>
<path d="M4.53706 4.86488H5.25246L5.47351 4.18456L5.69457 4.86488H6.40996L6.32996 4.92299H8.67044L8.59044 4.86488H9.30583L9.52689 4.18456L9.74794 4.86488H10.4633L10.3833 4.92299H12.7238L12.6438 4.86488H13.3592L13.5803 4.18456L13.8013 4.86488H14.5167L14.4367 4.92299H15.6069V2.46143H14.1401L14.1591 2.51954L14.0791 2.46143H13.0816L13.0016 2.51954L13.0205 2.46143H11.5538L11.7748 3.14175H12.4902L11.9115 3.56223L12.1326 4.24255L11.5539 3.82207L10.9752 4.24255L11.1963 3.56223L10.6176 3.14175H11.333L11.554 2.46143H10.0873L10.1062 2.51954L10.0262 2.46143H9.02871L8.94871 2.51954L8.96766 2.46143H7.5009L7.72196 3.14175H8.43735L7.85866 3.56223L8.07972 4.24255L7.50103 3.82207L6.92234 4.24255L7.1434 3.56223L6.56471 3.14175H7.2801L7.50116 2.46143H7.4739C6.37054 3.15813 5.35818 3.98591 4.45898 4.92299H4.61809L4.53809 4.86488H4.53706Z" fill="#3C3B6E"/>
<path d="M0.198153 13.4805C0.192521 13.5157 0.186889 13.551 0.181641 13.5863L0.327305 13.4805H0.198153Z" fill="#EFEFEF"/>
<path d="M1.77524 8.73151L2.35392 8.31104H1.96608C1.82464 8.5687 1.68999 8.83072 1.5625 9.0967L1.99629 9.41184L1.77524 8.73151Z" fill="#EFEFEF"/>
<path d="M0.478516 11.7573L0.552116 11.8107C0.55698 11.7929 0.561972 11.7751 0.566964 11.7573H0.478644H0.478516Z" fill="#EFEFEF"/>
<path d="M1.01584 12.3074H1.81558L1.77334 12.1775L2.35203 11.757H1.63664L1.41558 11.0767L1.19453 11.757H0.567582C0.562718 11.7748 0.557598 11.7926 0.552734 11.8104L1.05795 12.1775L1.01571 12.3074H1.01584Z" fill="#EFEFEF"/>
<path d="M0.837891 12.8585L1.41671 12.438L1.99539 12.8585L1.81658 12.3081H1.01671L0.837891 12.8585Z" fill="#EFEFEF"/>
<path d="M1.19391 15.2037H0.478516L1.0572 15.6242L0.836148 16.3045L1.41496 15.884L1.99365 16.3045L1.7726 15.6242L2.35128 15.2037H1.63602L1.49496 14.7695H1.33496L1.19391 15.2037Z" fill="#EFEFEF"/>
<path d="M1.33398 14.7696H1.49398L1.41398 14.5234L1.33398 14.7696Z" fill="#EFEFEF"/>
<path d="M3.44103 5.90784L3.34375 6.20736C3.38932 6.14861 3.43514 6.09024 3.48148 6.03213L3.44103 5.90771V5.90784Z" fill="#EFEFEF"/>
<path d="M2.96742 7.38431H3.28729L3.44729 7.26809L3.60729 7.38431H3.92716L3.80492 7.00825L4.38361 6.58777H3.66822L3.48761 6.03174C3.44127 6.08985 3.39532 6.14822 3.34988 6.20697L3.2261 6.58777H3.06342C2.99967 6.67519 2.93695 6.76351 2.875 6.85235L3.08966 7.00825L2.96742 7.38431Z" fill="#EFEFEF"/>
<path d="M2.86523 7.68902L3.28392 7.38477H2.96405L2.86523 7.68902Z" fill="#EFEFEF"/>
<path d="M4.0222 7.68902L3.92339 7.38477H3.60352L4.0222 7.68902Z" fill="#EFEFEF"/>
<path d="M3.22516 10.0342H2.50977L3.08858 10.4547L2.86753 11.135L3.44621 10.7145L4.0249 11.135L3.80385 10.4547L4.38266 10.0342H3.66727L3.60621 9.84619H3.28621L3.22516 10.0342Z" fill="#EFEFEF"/>
<path d="M3.28125 9.84629H3.60125L3.44125 9.354L3.28125 9.84629Z" fill="#EFEFEF"/>
<path d="M2.86753 14.5815L3.44621 14.1611L4.0249 14.5815L3.80385 13.9011L4.38266 13.4806H3.66727L3.44621 12.8003L3.22516 13.4806H2.50977L3.08858 13.9011L2.86753 14.5815Z" fill="#EFEFEF"/>
<path d="M5.11405 5.28571L4.89299 5.96603L5.47168 5.54555L6.0505 5.96603L5.82944 5.28571L6.32813 4.92334H4.61523L5.11405 5.28571Z" fill="#EFEFEF"/>
<path d="M5.69449 4.86551L5.47343 4.18506L5.25237 4.86551H4.53711L4.61698 4.92362H6.32988L6.40988 4.86551H5.69449Z" fill="#EFEFEF"/>
<path d="M4.89474 9.41211L5.47343 8.99163L6.05225 9.41211L5.83119 8.73179L6.40988 8.31131H5.69449L5.47343 7.63086L5.25237 8.31131H4.53711L5.1158 8.73179L4.89474 9.41211Z" fill="#EFEFEF"/>
<path d="M6.40988 11.7571H5.69449L5.47343 11.0767L5.25237 11.7571H4.53711L5.1158 12.1776L5.07356 12.3075H5.87343L5.83119 12.1776L6.40988 11.7571Z" fill="#EFEFEF"/>
<path d="M4.89062 12.8585L5.46931 12.438L6.04813 12.8585L5.86931 12.3081H5.06944L4.89062 12.8585Z" fill="#EFEFEF"/>
<path d="M5.25237 15.2037H4.53711L5.1158 15.6242L4.89474 16.3045L5.47343 15.884L6.05225 16.3045L5.83119 15.6242L6.40988 15.2037H5.69449L5.55343 14.7695H5.39343L5.25237 15.2037Z" fill="#EFEFEF"/>
<path d="M5.39062 14.7696H5.55062L5.47062 14.5234L5.39062 14.7696Z" fill="#EFEFEF"/>
<path d="M6.5625 3.14175L7.14119 3.56223L6.92013 4.24255L7.49895 3.82207L8.07764 4.24255L7.85658 3.56223L8.43527 3.14175H7.72L7.49895 2.46143L7.27789 3.14175H6.5625Z" fill="#EFEFEF"/>
<path d="M8.43527 6.58803H7.72L7.49895 5.90771L7.27789 6.58803H6.5625L7.14119 7.00851L7.01908 7.38458H7.33895L7.49895 7.26836L7.65882 7.38458H7.97882L7.85658 7.00851L8.43527 6.58803Z" fill="#EFEFEF"/>
<path d="M8.07507 7.68902L7.97625 7.38477H7.65625L8.07507 7.68902Z" fill="#EFEFEF"/>
<path d="M6.91602 7.68902L7.33483 7.38477H7.01496L6.91602 7.68902Z" fill="#EFEFEF"/>
<path d="M7.27789 10.0342H6.5625L7.14119 10.4547L6.92013 11.135L7.49895 10.7145L8.07764 11.135L7.85658 10.4547L8.43527 10.0342H7.72L7.65882 9.84619H7.33895L7.27789 10.0342Z" fill="#EFEFEF"/>
<path d="M7.33398 9.84629H7.65386L7.49398 9.354L7.33398 9.84629Z" fill="#EFEFEF"/>
<path d="M6.92013 14.5815L7.49895 14.1611L8.07764 14.5815L7.85658 13.9011L8.43527 13.4806H7.72L7.49895 12.8003L7.27789 13.4806H6.5625L7.14119 13.9011L6.92013 14.5815Z" fill="#EFEFEF"/>
<path d="M8.96052 2.46161H9.02158L9.52039 2.09925L10.0192 2.46161H10.0803L9.87803 1.83941L10.4567 1.41893H9.74132L9.6987 1.2876C9.43067 1.40241 9.16647 1.52427 8.90625 1.65317L9.16263 1.83941L8.96039 2.46161H8.96052Z" fill="#EFEFEF"/>
<path d="M10.1014 2.51954L10.0825 2.46143H10.0215L10.1014 2.51954Z" fill="#EFEFEF"/>
<path d="M8.94727 2.51954L9.02714 2.46143H8.96608L8.94727 2.51954Z" fill="#EFEFEF"/>
<path d="M9.16483 5.28571L8.94378 5.96603L9.52246 5.54555L10.1012 5.96603L9.8801 5.28571L10.3789 4.92334H8.66602L9.16483 5.28571Z" fill="#EFEFEF"/>
<path d="M9.74149 4.86551L9.52043 4.18506L9.29938 4.86551H8.58398L8.66398 4.92362H10.3769L10.4569 4.86551H9.74149Z" fill="#EFEFEF"/>
<path d="M8.94174 9.41211L9.52043 8.99163L10.0991 9.41211L9.87806 8.73179L10.4569 8.31131H9.74149L9.52043 7.63086L9.29938 8.31131H8.58398L9.1628 8.73179L8.94174 9.41211Z" fill="#EFEFEF"/>
<path d="M10.4569 11.7571H9.74149L9.52043 11.0767L9.29938 11.7571H8.58398L9.1628 12.1776L9.12056 12.3075H9.9203L9.87806 12.1776L10.4569 11.7571Z" fill="#EFEFEF"/>
<path d="M8.94727 12.8585L9.52595 12.438L10.1046 12.8585L9.92583 12.3081H9.12608L8.94727 12.8585Z" fill="#EFEFEF"/>
<path d="M9.29938 15.2037H8.58398L9.1628 15.6242L8.94174 16.3045L9.52043 15.884L10.0991 16.3045L9.87806 15.6242L10.4569 15.2037H9.74149L9.60043 14.7695H9.44043L9.29938 15.2037Z" fill="#EFEFEF"/>
<path d="M9.44336 14.7696H9.60336L9.52336 14.5234L9.44336 14.7696Z" fill="#EFEFEF"/>
<path d="M10.6152 3.14175L11.194 3.56223L10.973 4.24255L11.5517 3.82207L12.1305 4.24255L11.9094 3.56223L12.4881 3.14175H11.7727L11.5517 2.46143L11.3306 3.14175H10.6152Z" fill="#EFEFEF"/>
<path d="M12.4881 6.58803H11.7727L11.5517 5.90771L11.3306 6.58803H10.6152L11.194 7.00851L11.0718 7.38458H11.3918L11.5517 7.26836L11.7117 7.38458H12.0316L11.9094 7.00851L12.4881 6.58803Z" fill="#EFEFEF"/>
<path d="M12.1278 7.68902L12.0289 7.38477H11.709L12.1278 7.68902Z" fill="#EFEFEF"/>
<path d="M10.9746 7.68902L11.3934 7.38477H11.0734L10.9746 7.68902Z" fill="#EFEFEF"/>
<path d="M11.3306 10.0342H10.6152L11.194 10.4547L10.973 11.135L11.5517 10.7145L12.1305 11.135L11.9094 10.4547L12.4881 10.0342H11.7727L11.7117 9.84619H11.3918L11.3306 10.0342Z" fill="#EFEFEF"/>
<path d="M11.3906 9.84629H11.7105L11.5505 9.354L11.3906 9.84629Z" fill="#EFEFEF"/>
<path d="M10.973 14.5815L11.5517 14.1611L12.1305 14.5815L11.9094 13.9011L12.4881 13.4806H11.7727L11.5517 12.8003L11.3306 13.4806H10.6152L11.194 13.9011L10.973 14.5815Z" fill="#EFEFEF"/>
<path d="M14.5134 1.41873H13.7981L13.5771 0.738281L13.356 1.41873H12.6406L13.2193 1.83908L13.0172 2.46142H13.0783L13.5771 2.09905L14.0758 2.46142H14.1369L13.9347 1.83908L14.5134 1.41873Z" fill="#EFEFEF"/>
<path d="M14.1581 2.51954L14.1393 2.46143H14.0781L14.1581 2.51954Z" fill="#EFEFEF"/>
<path d="M13 2.51954L13.08 2.46143H13.0189L13 2.51954Z" fill="#EFEFEF"/>
<path d="M13.2174 5.28571L12.9964 5.96603L13.5752 5.54555L14.1539 5.96603L13.9328 5.28571L14.4316 4.92334H12.7188L13.2174 5.28571Z" fill="#EFEFEF"/>
<path d="M13.7981 4.86502L13.5771 4.18457L13.356 4.86502H12.6406L12.7206 4.92313H14.4335L14.5134 4.86502H13.7981Z" fill="#EFEFEF"/>
<path d="M12.9983 9.41211L13.5771 8.99163L14.1558 9.41211L13.9347 8.73179L14.5134 8.31131H13.7981L13.5771 7.63086L13.356 8.31131H12.6406L13.2193 8.73179L12.9983 9.41211Z" fill="#EFEFEF"/>
<path d="M14.5134 11.7571H13.7981L13.5771 11.0767L13.356 11.7571H12.6406L13.2193 12.1776L13.1771 12.3075H13.9769L13.9347 12.1776L14.5134 11.7571Z" fill="#EFEFEF"/>
<path d="M13 12.8585L13.5788 12.438L14.1575 12.8585L13.9787 12.3081H13.1788L13 12.8585Z" fill="#EFEFEF"/>
<path d="M13.356 15.2032H12.6406L13.2193 15.6237L12.9983 16.304L13.5771 15.8835L14.1558 16.304L13.9347 15.6237L14.5134 15.2032H13.7981L13.6571 14.769H13.4971L13.356 15.2032Z" fill="#EFEFEF"/>
<path d="M13.5 14.7696H13.66L13.58 14.5234L13.5 14.7696Z" fill="#EFEFEF"/>
</g>
<defs>
<clipPath id="clip0_745_8952">
<rect width="32" height="32" fill="white"/>
</clipPath>
</defs>
</svg>
